<?xml version="1.0" encoding="UTF-8" standalone="no"?>
<!DOCTYPE svg PUBLIC "-//W3C//DTD SVG 1.1//EN" "http://www.w3.org/Graphics/SVG/1.1/DTD/svg11.dtd">
<svg width="100%" height="100%" viewBox="0 0 682 621" version="1.1" xmlns="http://www.w3.org/2000/svg" xmlns:xlink="http://www.w3.org/1999/xlink" xml:space="preserve" xmlns:serif="http://www.serif.com/" style="fill-rule:evenodd;clip-rule:evenodd;stroke-linejoin:round;stroke-miterlimit:2;">
    <g transform="matrix(1,0,0,1,-168.856,-229.541)">
        <g transform="matrix(1.57764,0,0,1.6285,-150.254,-150.219)">
            <g transform="matrix(0.633859,0,0,0.614063,95.24,92.2437)">
                <path d="M436.79,850.459L168.856,850.486L326.105,764.936C266.634,708.363 229.541,628.479 229.541,540C229.541,368.653 368.653,229.541 540,229.541C711.347,229.541 850.459,368.653 850.459,540C850.459,711.347 711.347,850.459 540,850.459L436.79,850.459ZM343.247,448.738L293.983,498.002L275.035,516.95L293.983,535.898L343.247,585.162L362.195,566.215L312.931,516.95L362.195,467.686L343.247,448.738ZM786.017,498.002L736.753,448.738L717.805,467.686L767.069,516.95L717.805,566.214L736.753,585.162L786.017,535.898L804.965,516.95L786.017,498.002ZM676.772,558.521L635.776,493.204L650.913,493.204L607.48,424.254L564.047,493.204L579.184,493.204L540,555.632L500.817,493.204L515.954,493.204L472.521,424.254L429.088,493.204L444.224,493.204L403.229,558.521L418.346,558.521L375.662,626.851L454.917,626.851L454.917,655.773L490.125,655.773L490.125,626.851L589.876,626.851L589.876,655.773L625.084,655.773L625.084,626.851L704.338,626.851L661.655,558.521L676.772,558.521ZM526.696,558.521L553.305,558.521L540,579.819L526.696,558.521Z" style="fill:rgb(247,70,70);"/>
            </g>
        </g>
    </g>
</svg>
