<?xml version="1.0" encoding="UTF-8" standalone="no"?>
<!DOCTYPE svg PUBLIC "-//W3C//DTD SVG 1.1//EN" "http://www.w3.org/Graphics/SVG/1.1/DTD/svg11.dtd">
<svg width="100%" height="100%" viewBox="0 0 694 621" version="1.1" xmlns="http://www.w3.org/2000/svg" xmlns:xlink="http://www.w3.org/1999/xlink" xml:space="preserve" xmlns:serif="http://www.serif.com/" style="fill-rule:evenodd;clip-rule:evenodd;stroke-linejoin:round;stroke-miterlimit:2;">
    <g transform="matrix(1,0,0,1,-1404,-229.547)">
        <g transform="matrix(1.57764,0,0,1.6285,1024.21,-150.205)">
            <g transform="matrix(0.633859,0,0,0.614063,-649.206,92.2355)">
                <path d="M1714.47,850.479C1543.12,850.479 1404,711.364 1404,540.013C1404,368.662 1543.12,229.547 1714.47,229.547C1885.82,229.547 2024.93,368.662 2024.93,540.013C2024.93,638.77 1978.72,726.819 1906.76,783.699L2097.01,850.473L1908.28,850.275L1908.28,850.486L1714.47,850.486L1714.47,850.479Z" style="fill:rgb(247,70,70);"/>
            </g>
        </g>
        <g transform="matrix(1.57764,0,0,1.6285,1024.21,-150.205)">
            <g transform="matrix(0.298202,0,0,0.288889,430.037,413.749)">
                <path d="M0,69.848L50.213,69.848L25.106,110.04L0,69.848ZM283.2,69.848L205.839,-53.407L234.403,-53.407L152.443,-183.519L70.483,-53.407L99.047,-53.407L25.106,64.398L-48.835,-53.407L-20.271,-53.407L-102.23,-183.519L-184.191,-53.407L-155.627,-53.407L-232.988,69.848L-204.461,69.848L-285.007,198.79L-135.449,198.79L-135.449,253.367L-69.011,253.367L-69.011,198.79L119.224,198.79L119.224,253.367L185.663,253.367L185.663,198.79L335.219,198.79L254.674,69.848L283.2,69.848Z" style="fill:white;fill-rule:nonzero;"/>
            </g>
            <g transform="matrix(0.298202,0,0,0.288889,326.807,448.451)">
                <path d="M0,-257.438L-92.964,-164.475L-128.719,-128.72L-92.963,-92.964L0,0L35.755,-35.755L-57.208,-128.719L35.755,-221.683L0,-257.438Z" style="fill:white;fill-rule:nonzero;"/>
            </g>
            <g transform="matrix(0.298202,0,0,0.288889,575.963,421.594)">
                <path d="M0,-71.511L-92.964,-164.474L-128.719,-128.719L-35.755,-35.755L-128.719,57.208L-92.964,92.963L0,0L35.755,-35.756L0,-71.511Z" style="fill:white;fill-rule:nonzero;"/>
            </g>
        </g>
    </g>
</svg>
