<?xml version="1.0" encoding="UTF-8" standalone="no"?>
<!DOCTYPE svg PUBLIC "-//W3C//DTD SVG 1.1//EN" "http://www.w3.org/Graphics/SVG/1.1/DTD/svg11.dtd">
<svg width="100%" height="100%" viewBox="0 0 180 180" version="1.1" xmlns="http://www.w3.org/2000/svg" xmlns:xlink="http://www.w3.org/1999/xlink" xml:space="preserve" xmlns:serif="http://www.serif.com/" style="fill-rule:evenodd;clip-rule:evenodd;stroke-linejoin:round;stroke-miterlimit:2;">
    <g transform="matrix(1,0,0,1,-664.135,-734.279)">
        <g transform="matrix(1,0,0,1,-642.504,363.927)">
            <g transform="matrix(0.359986,0,0,0.359986,1396.64,460.348)">
                <g transform="matrix(1,0,0,1,-250,-250)">
                    <circle cx="250" cy="250" r="250" style="fill:rgb(238,71,72);"/>
                    <path d="M250,430L278.9,430L278.9,382.54L409,382.54L338.92,270.38L363.74,270.38L296.45,163.17L321.29,163.17L250,50M250,50L178.71,163.17L203.55,163.17L136.26,270.38L161.08,270.38L91,382.54L221.11,382.54L221.11,430L278.9,430" style="fill:white;fill-rule:nonzero;"/>
                </g>
            </g>
        </g>
    </g>
</svg>
